<?xml version="1.0" standalone="no"?>
<!DOCTYPE svg PUBLIC "-//W3C//DTD SVG 20010904//EN"
 "http://www.w3.org/TR/2001/REC-SVG-20010904/DTD/svg10.dtd">
<svg version="1.0" xmlns="http://www.w3.org/2000/svg"
 width="261.000000pt" height="261.000000pt" viewBox="0 0 261.000000 261.000000"
 preserveAspectRatio="xMidYMid meet">
<metadata>
Created by potrace 1.14, written by Peter Selinger 2001-2017
</metadata>
<g transform="translate(0.000000,261.000000) scale(0.100000,-0.100000)"
fill="#000000" stroke="none">
<path d="M1125 2594 c-297 -43 -549 -173 -758 -388 -81 -83 -177 -217 -227
-315 -81 -161 -133 -377 -134 -556 -1 -171 10 -255 51 -394 183 -632 827
-1032 1468 -912 146 27 152 29 250 68 187 74 318 162 462 309 137 140 241 313
303 504 26 81 56 231 59 295 11 281 -22 449 -135 680 -182 373 -529 630 -954
706 -90 16 -289 18 -385 3z m400 -139 c235 -48 431 -152 596 -315 228 -225
350 -514 349 -830 0 -126 -5 -168 -31 -280 -112 -467 -518 -828 -995 -885 -53
-7 -251 -7 -272 -1 -9 2 -38 7 -64 11 -71 8 -212 52 -294 90 -288 133 -523
394 -619 691 -45 136 -55 197 -59 345 -14 505 311 970 789 1134 178 61 421 77
600 40z"/>
<path d="M1308 2285 c-1 -2 -32 -5 -68 -6 -170 -7 -364 -77 -510 -185 -254
-187 -402 -481 -399 -791 1 -98 5 -135 23 -219 29 -135 111 -298 203 -404 65
-74 87 -94 168 -155 175 -132 377 -195 602 -189 111 3 140 6 181 18 9 3 28 7
42 10 71 12 221 82 320 150 44 29 150 131 201 191 72 87 146 241 181 378 34
137 30 350 -11 489 -91 312 -323 556 -626 656 -100 33 -133 40 -220 48 -33 3
-65 7 -72 9 -6 2 -13 2 -15 0z"/>
</g>
</svg>
