<svg width="1292" height="581" viewBox="0 0 1292 581" fill="none" xmlns="http://www.w3.org/2000/svg">
<path d="M280.891 20.2392C65.7153 6.96026 116.897 30.1539 -6.00986 45.2032V113.721L1296.2 127C1341.89 97.6105 1472.66 141.316 1438.06 100.443C1426.37 86.6324 1149.56 13.3343 1075.71 28.7376C970.516 50.679 372.631 25.9007 280.891 20.2392Z" fill="url(#paint0_linear)"/>
<path d="M506.693 0.0555422C346.878 -1.64413 100.781 35.9965 -2.29077 67.5114V581H1291C1291 496.343 1513.4 30.0123 1236.7 49.9835C890.821 74.9474 706.461 2.18014 506.693 0.0555422Z" fill="url(#paint1_radial)"/>
<defs>
<linearGradient id="paint0_linear" x1="718.901" y1="16.2854" x2="718.901" y2="127" gradientUnits="userSpaceOnUse">
<stop stop-color="#E6D0C6"/>
<stop offset="1" stop-color="#DAB198"/>
</linearGradient>
<radialGradient id="paint1_radial" cx="0" cy="0" r="1" gradientUnits="userSpaceOnUse" gradientTransform="translate(405.215 -9.50565) rotate(11.0417) scale(1170.33 14638.8)">
<stop stop-color="#EBE0D9"/>
<stop offset="1" stop-color="#F3D3C3"/>
</radialGradient>
</defs>
</svg>
