<svg width="261" height="261" viewBox="0 0 261 261" fill="none" xmlns="http://www.w3.org/2000/svg">
<path fill-rule="evenodd" clip-rule="evenodd" d="M130.3 247.3C194.918 247.3 247.3 194.918 247.3 130.3C247.3 65.6826 194.918 13.3 130.3 13.3C65.6826 13.3 13.3 65.6826 13.3 130.3C13.3 194.918 65.6826 247.3 130.3 247.3ZM130.3 260.3C202.097 260.3 260.3 202.097 260.3 130.3C260.3 58.503 202.097 0.300003 130.3 0.300003C58.5029 0.300003 0.299988 58.503 0.299988 130.3C0.299988 202.097 58.5029 260.3 130.3 260.3ZM227.8 130.3C227.8 184.148 184.148 227.8 130.3 227.8C76.4518 227.8 32.8 184.148 32.8 130.3C32.8 76.4518 76.4518 32.8 130.3 32.8C184.148 32.8 227.8 76.4518 227.8 130.3ZM188.201 142.092C188.721 136.372 187.941 125.842 185.861 110.502L187.733 108.006C188.617 106.862 188.513 105.848 187.421 104.964C186.589 104.288 185.887 103.508 185.315 102.624C184.795 101.74 184.327 100.778 183.911 99.7381C183.131 97.5541 182.377 97.2161 181.649 98.7241L179.699 102.624C179.127 103.768 179.101 104.964 179.621 106.212C179.725 106.576 179.829 107.096 179.933 107.772C180.089 108.396 180.245 109.202 180.401 110.19C181.857 120.954 182.923 129.196 183.599 134.916C184.327 140.584 184.717 143.73 184.769 144.354C183.991 145.806 182.153 146.689 179.255 147.003C176.096 146.682 173.712 144.368 172.105 140.064C171.897 139.44 171.429 139.128 170.701 139.128C169.973 139.128 169.531 139.492 169.375 140.22C168.855 142.82 168.257 144.588 167.581 145.524C166.957 146.356 165.683 146.668 163.759 146.46C161.835 146.252 160.821 145.576 160.717 144.432C160.717 144.016 160.951 143.184 161.419 141.936C161.887 140.74 161.679 139.934 160.795 139.518C159.859 139.102 159.157 139.466 158.689 140.61C156.245 145.758 152.215 147.318 146.599 145.29L147.301 143.886C147.977 142.378 147.847 141.416 146.911 141C145.923 140.636 145.221 141.026 144.805 142.17C143.765 145.03 140.463 146.642 134.899 147.006C134.777 147.006 134.65 147.015 134.517 147.032C133.029 146.759 131.54 145.711 130.052 143.886C130.052 143.834 130.026 143.704 129.974 143.496C129.922 143.288 129.896 142.976 129.896 142.56C129.896 141.676 129.506 141.234 128.726 141.234C128.206 141.234 127.712 141.624 127.244 142.404C125.84 145.004 122.044 146.538 115.856 147.006L115.855 147.006L115.84 147.006C113.812 146.954 112.07 146.824 110.614 146.616C109.158 146.356 108.014 145.966 107.182 145.446C110.302 143.626 112.096 141.754 112.564 139.83C113.032 137.75 111.758 135.826 108.742 134.058C102.71 130.626 97.2497 130.782 92.3617 134.526C89.8137 136.554 88.3317 138.634 87.9157 140.766C87.7077 142.066 88.1497 142.794 89.2417 142.95C92.5697 143.418 94.7277 144.042 95.7157 144.822C93.3757 146.226 90.5677 146.954 87.2917 147.006C87.2682 147.006 87.2447 147.006 87.221 147.007C84.5637 147.012 82.9517 144.619 82.3853 139.83L80.1233 121.11C79.8633 118.146 79.1353 117.444 77.9393 119.004L75.5988 121.89C74.9748 122.67 74.8708 125.114 75.2868 129.222C71.4908 131.354 68.3448 133.746 65.8488 136.398C65.5368 136.762 65.1728 137.282 64.7568 137.958C64.3408 138.634 63.8728 139.44 63.3528 140.376C62.3648 142.196 61.7928 143.86 61.6368 145.368C61.4808 146.876 61.9748 147.994 63.1188 148.722C64.8868 149.866 67.0188 150.516 69.5148 150.672C71.4388 150.828 72.7648 150.724 73.4928 150.36C74.2728 149.996 75.6508 148.332 77.6273 145.368C78.1993 149.424 79.1353 152.258 80.4353 153.87C81.7837 155.53 84.0631 156.362 87.2736 156.366L87.2917 156.366C90.6717 156.366 95.3517 153.714 101.332 148.41C105.723 153.68 110.55 156.331 115.814 156.366L115.842 156.366L115.856 156.366L115.883 156.366L115.918 156.366C115.934 156.366 115.95 156.366 115.966 156.366C119.771 156.334 123.271 154.67 126.464 151.374C129.168 154.702 131.976 156.366 134.888 156.366L134.902 156.366C135.993 156.366 137.058 156.132 138.097 155.664C139.189 155.248 140.229 154.624 141.217 153.792C142.881 155.456 145.143 156.288 148.003 156.288C150.863 156.288 153.333 155.326 155.413 153.402C157.389 155.846 160.197 156.99 163.837 156.834C165.397 156.73 166.567 155.924 167.347 154.416C167.763 153.584 168.179 152.674 168.595 151.686C169.011 150.646 169.401 149.554 169.765 148.41C171.317 153.357 174.181 155.997 178.357 156.33C178.612 156.407 178.903 156.419 179.231 156.366L179.232 156.366L179.281 156.366C179.664 156.366 180.006 156.283 180.307 156.116C184.797 154.779 187.429 150.104 188.201 142.092ZM75.9888 134.838C72.0368 136.086 69.3328 137.75 67.8768 139.83C67.6688 140.142 67.7468 140.402 68.1108 140.61C70.7108 141.702 73.6228 141.806 76.8473 140.922C76.7433 140.09 76.6133 139.18 76.4573 138.192C76.3013 137.152 76.1453 136.034 75.9888 134.838ZM70.9188 106.68C71.2308 106.264 71.6728 106.134 72.2448 106.29C73.2848 106.654 74.2988 107.122 75.2868 107.694C76.2753 108.266 77.1853 108.916 78.0173 109.644C78.4333 110.06 78.5113 110.528 78.2513 111.048L74.5068 116.976C74.0908 117.548 73.6228 117.6 73.1028 117.132C72.8948 116.924 72.4268 116.612 71.6988 116.196C71.0228 115.728 70.1128 115.156 68.9688 114.48L66.3948 118.692C66.0308 119.212 65.5628 119.264 64.9908 118.848C64.7308 118.64 64.1068 118.25 63.1188 117.678C62.1828 117.106 60.9088 116.326 59.2968 115.338C58.7248 115.026 58.6468 114.584 59.0628 114.012L62.8068 108.396C63.1188 107.98 63.5608 107.85 64.1328 108.006C65.6928 108.526 67.1488 109.28 68.5008 110.268L70.9188 106.68ZM129.74 159.486C129.168 159.33 128.726 159.46 128.414 159.876L125.996 163.464C124.644 162.476 123.188 161.722 121.628 161.202C121.056 161.046 120.614 161.176 120.302 161.592L116.558 167.208C116.142 167.78 116.22 168.222 116.792 168.534C118.404 169.522 119.678 170.302 120.614 170.874C121.602 171.446 122.226 171.836 122.486 172.044C123.058 172.46 123.526 172.408 123.89 171.888L126.464 167.676C127.608 168.352 128.518 168.898 129.194 169.314C129.922 169.782 130.39 170.12 130.598 170.328C131.118 170.796 131.586 170.744 132.002 170.172L135.746 164.244C136.006 163.724 135.928 163.256 135.512 162.84C134.68 162.112 133.77 161.462 132.782 160.89C131.794 160.318 130.78 159.85 129.74 159.486ZM159.391 119.004C159.703 118.536 160.171 118.406 160.795 118.614C161.835 118.978 162.823 119.446 163.759 120.018C164.747 120.59 165.657 121.24 166.489 121.968C166.905 122.384 166.983 122.852 166.723 123.372L162.979 129.3C162.563 129.872 162.121 129.95 161.653 129.534C161.445 129.326 161.029 129.04 160.405 128.676C159.781 128.26 159.001 127.766 158.065 127.194L155.647 131.016C155.283 131.536 154.815 131.614 154.243 131.25C153.983 131.042 153.359 130.652 152.371 130.08C151.435 129.456 150.161 128.65 148.549 127.662C148.029 127.35 147.951 126.934 148.315 126.414L152.059 120.798C152.683 119.914 154.399 120.408 157.207 122.28L159.391 119.004ZM153.931 110.268C154.243 109.852 154.685 109.722 155.257 109.878C156.297 110.242 157.285 110.71 158.221 111.282C159.209 111.854 160.119 112.504 160.951 113.232C161.367 113.648 161.445 114.116 161.185 114.636L157.441 120.564C157.077 121.084 156.609 121.136 156.037 120.72C155.517 120.304 153.645 119.134 150.421 117.21C149.849 116.898 149.745 116.482 150.109 115.962L153.931 110.268ZM200.588 101.22C201.628 98.9841 202.304 99.5041 202.616 102.78L204.488 121.812C206.048 138.868 205.684 149.606 203.396 154.026C202.876 154.962 202.382 155.352 201.914 155.196C201.394 155.04 201.16 153.792 201.212 151.452C201.264 149.476 201.056 146.226 200.588 141.702C200.12 137.126 199.418 131.328 198.482 124.308L196.844 111.36C196.688 110.268 196.844 109.202 197.312 108.162L200.588 101.22Z" fill="#2DBF82"/>
</svg>
