<svg width="1300" height="300" viewBox="0 0 1300 300" fill="none" xmlns="http://www.w3.org/2000/svg">
<path d="M335.36 207H319.376V108.36H335.36V152.856L350.048 151.704L370.208 108.36H388.496L364.16 157.896L389.504 207H370.928L350.048 165.816L335.36 166.824V207ZM414.849 207V108.36H477.057V122.328H430.833V150.264H468.417V164.088H430.833V192.888H477.057V207H414.849ZM505.963 207V108.36H533.899L563.851 192.888H566.011V108.36H581.995V207H554.635L523.963 122.328H521.947V207H505.963ZM607.706 207L632.042 108.36H663.866L688.346 207H672.218L666.89 185.832H629.018L623.69 207H607.706ZM644.426 121.752L632.186 171.72H663.722L651.626 121.752H644.426ZM769.221 207H713.925V108.36H729.909V192.744H769.221V207ZM793.789 207V108.36H809.773V207H793.789Z" fill="white" fill-opacity="0.55"/>
<path d="M882.752 124.632C872.288 124.632 867.056 128.088 867.056 135C867.056 138.072 868.352 140.424 870.944 142.056C873.536 143.688 879.584 146.04 889.088 149.112C898.688 152.184 905.408 155.688 909.248 159.624C913.088 163.464 915.008 169.416 915.008 177.48C915.008 187.752 911.888 195.528 905.648 200.808C899.408 206.088 891.248 208.728 881.168 208.728C873.68 208.728 864.512 207.576 853.664 205.272L848.48 204.264L850.496 188.856C863.36 190.584 873.2 191.448 880.016 191.448C890.192 191.448 895.28 187.224 895.28 178.776C895.28 175.704 894.08 173.304 891.68 171.576C889.376 169.848 884.72 167.976 877.712 165.96C866.576 162.792 858.704 159.048 854.096 154.728C849.584 150.312 847.328 144.216 847.328 136.44C847.328 126.648 850.304 119.352 856.256 114.552C862.208 109.752 870.368 107.352 880.736 107.352C887.84 107.352 896.864 108.312 907.808 110.232L912.992 111.24L911.408 126.936C897.872 125.4 888.32 124.632 882.752 124.632ZM979.851 207H959.979V167.4L929.739 109.08H951.771L969.771 148.104L987.771 109.08H1009.8L979.851 167.4V207ZM1032.07 207V109.08H1051.94V207H1032.07ZM1076.59 207L1098.62 109.08H1136.35L1158.38 207H1138.51L1134.62 189.288H1100.35L1096.46 207H1076.59ZM1114.03 125.496L1104.09 172.008H1130.87L1120.94 125.496H1114.03ZM1239.24 207V166.392H1202.81V207H1182.94V109.08H1202.81V149.112H1239.24V109.08H1259.12V207H1239.24Z" fill="white"/>
<path fill-rule="evenodd" clip-rule="evenodd" d="M258 150C258 209.647 209.647 258 150 258C90.3532 258 42 209.647 42 150C42 90.3532 90.3532 42 150 42C209.647 42 258 90.3532 258 150ZM270 150C270 216.274 216.274 270 150 270C83.7258 270 30 216.274 30 150C30 83.7258 83.7258 30 150 30C216.274 30 270 83.7258 270 150ZM150 240C199.706 240 240 199.706 240 150C240 100.294 199.706 60 150 60C100.294 60 60 100.294 60 150C60 199.706 100.294 240 150 240Z" fill="#2DBF82"/>
<path d="M101.667 139.573C102.771 138.133 103.443 138.781 103.683 141.517L105.771 158.797C106.299 163.261 107.811 165.469 110.307 165.421C111.459 165.421 112.251 165.949 112.683 167.005C113.115 168.157 113.067 169.621 112.539 171.397C112.011 173.173 111.267 174.061 110.307 174.061C107.331 174.061 105.219 173.293 103.971 171.757C102.771 170.269 101.907 167.653 101.379 163.909C99.5546 166.645 98.2826 168.181 97.5626 168.517C96.8906 168.853 95.6666 168.949 93.8906 168.805C91.5866 168.661 89.6186 168.061 87.9866 167.005C86.9306 166.333 86.4746 165.301 86.6186 163.909C86.7626 162.517 87.2906 160.981 88.2026 159.301C88.6826 158.437 89.1146 157.693 89.4986 157.069C89.8826 156.445 90.2186 155.965 90.5066 155.629C92.8106 153.181 95.7146 150.973 99.2186 149.005C98.8346 145.213 98.9306 142.957 99.5066 142.237L101.667 139.573ZM99.8666 154.189C96.2186 155.341 93.7226 156.877 92.3786 158.797C92.1866 159.085 92.2586 159.325 92.5946 159.517C94.9946 160.525 97.6826 160.621 100.659 159.805C100.563 159.037 100.443 158.197 100.299 157.285C100.155 156.325 100.011 155.293 99.8666 154.189ZM95.1866 128.197C95.4746 127.813 95.8826 127.693 96.4106 127.837C97.3706 128.173 98.3066 128.605 99.2186 129.133C100.131 129.661 100.971 130.261 101.739 130.933C102.123 131.317 102.195 131.749 101.955 132.229L98.4986 137.701C98.1146 138.229 97.6826 138.277 97.2026 137.845C97.0106 137.653 96.5786 137.365 95.9066 136.981C95.2826 136.549 94.4426 136.021 93.3866 135.397L91.0106 139.285C90.6746 139.765 90.2426 139.813 89.7146 139.429C89.4746 139.237 88.8986 138.877 87.9866 138.349C87.1226 137.821 85.9466 137.101 84.4586 136.189C83.9306 135.901 83.8586 135.493 84.2426 134.965L87.6986 129.781C87.9866 129.397 88.3946 129.277 88.9226 129.421C90.3626 129.901 91.7066 130.597 92.9546 131.509L95.1866 128.197Z" fill="white"/>
<path d="M136.652 165.421C138.476 165.421 139.532 166.165 139.82 167.653C139.868 167.893 139.892 168.157 139.892 168.445C139.94 168.685 139.94 168.925 139.892 169.165C139.364 172.429 138.308 174.061 136.724 174.061C131.828 174.061 127.34 171.613 123.26 166.717C117.74 171.613 113.42 174.061 110.3 174.061C108.572 174.061 107.492 172.861 107.06 170.461C106.628 168.061 107.18 166.501 108.716 165.781C109.292 165.541 109.82 165.421 110.3 165.421C113.324 165.373 115.916 164.701 118.076 163.405C117.164 162.685 115.172 162.109 112.1 161.677C111.092 161.533 110.684 160.861 110.876 159.661C111.26 157.693 112.628 155.773 114.98 153.901C119.492 150.445 124.532 150.301 130.1 153.469C132.884 155.101 134.06 156.877 133.628 158.797C133.196 160.573 131.54 162.301 128.66 163.981C129.428 164.461 130.484 164.821 131.828 165.061C133.172 165.253 134.78 165.373 136.652 165.421Z" fill="white"/>
<path d="M149.771 162.541C151.259 164.365 152.747 165.349 154.235 165.493C155.579 165.637 156.347 166.117 156.539 166.933C156.683 167.509 156.683 168.517 156.539 169.957C156.491 170.677 156.371 171.301 156.179 171.829C156.035 172.309 155.891 172.717 155.747 173.053C155.459 173.725 154.955 174.061 154.235 174.061C151.547 174.061 148.955 172.525 146.459 169.453C143.483 172.525 140.219 174.061 136.667 174.061C135.659 174.061 135.011 173.413 134.723 172.117L134.075 169.165C133.931 168.397 134.123 167.605 134.651 166.789C135.179 165.925 135.851 165.469 136.667 165.421C142.379 164.989 145.883 163.573 147.179 161.173C147.611 160.453 148.067 160.093 148.547 160.093C149.267 160.093 149.627 160.501 149.627 161.317C149.627 161.701 149.651 161.989 149.699 162.181C149.747 162.373 149.771 162.493 149.771 162.541ZM148.259 177.301C148.547 176.917 148.955 176.797 149.483 176.941C150.443 177.277 151.379 177.709 152.291 178.237C153.203 178.765 154.043 179.365 154.811 180.037C155.195 180.421 155.267 180.853 155.027 181.333L151.571 186.805C151.187 187.333 150.755 187.381 150.275 186.949C150.083 186.757 149.651 186.445 148.979 186.013C148.355 185.629 147.515 185.125 146.459 184.501L144.083 188.389C143.747 188.869 143.315 188.917 142.787 188.533C142.547 188.341 141.971 187.981 141.059 187.453C140.195 186.925 139.019 186.205 137.531 185.293C137.003 185.005 136.931 184.597 137.315 184.069L140.771 178.885C141.059 178.501 141.467 178.381 141.995 178.525C143.435 179.005 144.779 179.701 146.027 180.613L148.259 177.301Z" fill="white"/>
<path d="M163.389 160.957C163.773 159.901 164.421 159.541 165.333 159.877C166.197 160.261 166.317 161.149 165.693 162.541L165.045 163.837C170.229 165.709 173.949 164.269 176.205 159.517C176.637 158.461 177.285 158.125 178.149 158.509C178.965 158.893 179.157 159.637 178.725 160.741C178.293 161.893 178.077 162.661 178.077 163.045C178.173 164.101 179.109 164.725 180.885 164.917C182.661 165.109 183.837 164.821 184.413 164.053C185.037 163.189 185.589 161.557 186.069 159.157C186.213 158.485 186.621 158.149 187.293 158.149C187.965 158.149 188.397 158.437 188.589 159.013C190.077 162.997 192.285 165.133 195.213 165.421C196.317 165.565 197.037 166.429 197.373 168.013C197.709 169.501 197.685 170.893 197.301 172.189C196.917 173.437 196.221 174.061 195.213 174.061C190.893 174.061 187.965 171.613 186.429 166.717C186.093 167.773 185.733 168.781 185.349 169.741C184.965 170.653 184.581 171.493 184.197 172.261C183.477 173.653 182.397 174.397 180.957 174.493C177.597 174.637 175.005 173.581 173.181 171.325C171.261 173.101 168.981 173.989 166.341 173.989C163.701 173.989 161.613 173.221 160.077 171.685C159.165 172.453 158.205 173.029 157.197 173.413C156.237 173.845 155.253 174.061 154.245 174.061C152.949 174.061 152.109 172.885 151.725 170.533C151.677 170.245 151.629 169.909 151.581 169.525C151.533 169.093 151.485 168.613 151.437 168.085C151.341 166.885 151.893 166.069 153.093 165.637C153.525 165.493 153.909 165.421 154.245 165.421C159.381 165.085 162.429 163.597 163.389 160.957ZM176.853 139.573C177.141 139.141 177.573 139.021 178.149 139.213C179.109 139.549 180.021 139.981 180.885 140.509C181.797 141.037 182.637 141.637 183.405 142.309C183.789 142.693 183.861 143.125 183.621 143.605L180.165 149.077C179.781 149.605 179.373 149.677 178.941 149.293C178.749 149.101 178.365 148.837 177.789 148.501C177.213 148.117 176.493 147.661 175.629 147.133L173.397 150.661C173.061 151.141 172.629 151.213 172.101 150.877C171.861 150.685 171.285 150.325 170.373 149.797C169.509 149.221 168.333 148.477 166.845 147.565C166.365 147.277 166.293 146.893 166.629 146.413L170.085 141.229C170.661 140.413 172.245 140.869 174.837 142.597L176.853 139.573ZM171.813 131.509C172.101 131.125 172.509 131.005 173.037 131.149C173.997 131.485 174.909 131.917 175.773 132.445C176.685 132.973 177.525 133.573 178.293 134.245C178.677 134.629 178.749 135.061 178.509 135.541L175.053 141.013C174.717 141.493 174.285 141.541 173.757 141.157C173.277 140.773 171.549 139.693 168.573 137.917C168.045 137.629 167.949 137.245 168.285 136.765L171.813 131.509Z" fill="white"/>
<path d="M201.287 131.725C203.207 145.885 203.927 155.605 203.447 160.885C202.679 168.853 199.919 173.245 195.167 174.061C193.967 174.253 193.295 173.509 193.151 171.829C193.103 171.301 193.079 170.725 193.079 170.101C193.031 169.429 193.031 168.709 193.079 167.941C193.175 166.405 193.871 165.565 195.167 165.421C197.855 165.133 199.559 164.317 200.279 162.973C200.231 162.397 199.871 159.493 199.199 154.261C198.575 148.981 197.591 141.373 196.247 131.437C196.103 130.525 195.959 129.781 195.815 129.205C195.719 128.581 195.623 128.101 195.527 127.765C195.047 126.613 195.071 125.509 195.599 124.453L197.399 120.853C198.071 119.461 198.767 119.773 199.487 121.789C199.871 122.749 200.303 123.637 200.783 124.453C201.311 125.269 201.959 125.989 202.727 126.613C203.735 127.429 203.831 128.365 203.015 129.421L201.287 131.725Z" fill="white"/>
<path d="M214.881 123.157C215.841 121.093 216.465 121.573 216.753 124.597L218.481 142.165C219.921 157.909 219.585 167.821 217.473 171.901C216.993 172.765 216.537 173.125 216.105 172.981C215.625 172.837 215.409 171.685 215.457 169.525C215.505 167.701 215.313 164.701 214.881 160.525C214.449 156.301 213.801 150.949 212.937 144.469L211.425 132.517C211.281 131.509 211.425 130.525 211.857 129.565L214.881 123.157Z" fill="white"/>
</svg>
