<svg xmlns="http://www.w3.org/2000/svg" width="641.333" height="368" viewBox="0 0 481 276" fill="#010101" xmlns:v="https://vecta.io/nano"><path d="M255.5 13.44c-.78-3.33.43-6.8 2.32-9.56 2.27 3.14 4.49 6.44 5.44 10.25 1.16 7.53.2 15.38-2.88 22.36l-1.92 2.13c-.62-4.29 1.34-8.35 1.03-12.62.16-4.53-1.99-8.64-3.99-12.56zm91.37 15.29c9.82-4.03 19.64-8.77 27.11-16.52-.49 2.21-1.23 4.39-2.66 6.18-5.47 6.99-13.54 11.5-21.92 14.08-4.25 1.22-8.67 2.33-13.13 1.76 2.98-2.77 7-3.82 10.6-5.5zM63.55 48.62c17.25-6.83 36.05-10.91 51-22.49-.3 1.83-.7 3.8-1.99 5.21-3.16 3.55-6.64 6.89-10.77 9.28-6.78 4.07-14.62 5.73-22.22 7.56-5.99 1.29-12.05 2.95-18.24 2.31l2.22-1.87z"/><path d="M120.9 30.27l2.43.04c1.02 17.72 4.72 35.14 7.45 52.65 1.82 11.38 4.1 23.09 10.42 32.94 2.57 4.09 7.18 6.28 11.87 6.84-1.09-3.43-3.08-6.48-4.18-9.91-1.37-5.55-.47-11.57 2.37-16.53 4.06-7.57 10.67-14.45 19.37-16.22 8.73-2.54 18.14 5.86 17.03 14.82-3.7-2.53-7.57-4.98-11.94-6.15-7.45-1.06-15.54 1.81-20.28 7.74-.96 1.27-2.24 2.68-1.96 4.41 1.77 7.02 6.26 13.55 12.86 16.82 4.53 2.71 10.51 2.57 14.9-.37 5.59-2.82 8.86-8.5 14.07-11.79.01 1.91.16 3.95-1.02 5.6-7.66 12.42-21.81 19.37-35.86 21.58-6.08 1.47-12.95.68-17.99-3.2-4.76-3.68-6.89-9.48-9.48-14.69-2.87 7.31-4.85 16.56-12.49 20.39-6.52 1.46-12.04-4.08-18.44-3.9-3.91 2.87-7.42 6.64-12.31 7.8-7.86 2.34-18.01 2.75-23.81-4.08-5.27-6.29-5.76-14.87-7.66-22.52-3.11 4.18-6.2 8.97-11.26 10.93-7.82 1.42-15.63-1.48-22.45-5.07-1.21-3.31 1.25-6.33 2.98-8.92 2.18-3.19 5.97-4.48 9.37-5.9 6.46-2.53 12.92-5.19 18.75-8.98-.89-6.09.9-11.95 3.19-17.53 4.69 7 3.3 15.61 4.57 23.49.31 8.06.63 17.24 6.66 23.36 6.2 5.39 15.4 6.68 23.13 4.29 4.26-.99 7.88-3.49 11.64-5.6 7.15-2.21 12.89 5.62 20.15 3.85 1.71-1.69 2.48-4.09 2.48-6.45.48-9.72-1.51-19.32-2.1-28.99l-3.79-35.06c-.36-8.5-3.56-17.87 1.33-25.69m-86.25 80.79c5.23 2.41 11.95 5.17 17.38 1.89 4.58-2.98 3.52-9.06 3.14-13.69-6.26 4.94-13.93 7.44-20.52 11.8zm189.08-78.37c2.08-.57 5.2-1 6.2 1.47 2.59 4.82 1.2 10.47 1.26 15.68l3.58 3.09c-.28 1.7-.68 3.36-1.31 4.96-1.61-1.18-4.33-4.17-6.06-1.62-6.09 7.7-14.68 13.01-23.72 16.57-4.03 1.42-8.2 2.87-12.54 2.67 2.67-2.79 6.47-3.88 9.8-5.62 5.44-2.75 10.84-5.61 15.92-8.98 2.8-1.94 5.92-3.86 7.33-7.13-3.69-1.33-8.05-2.83-9.66-6.78.14-6.05 4.41-11.07 9.2-14.31m-5.7 10.3c2.34 3.08 5.94 4.67 9.53 5.79.19-2.84-.45-5.58-1.37-8.23-3.04-.68-6.34-.44-8.16 2.44zm-45.72-.76c3.33-2.51 5.87-5.9 9.21-8.4-2.8 9.86-11.13 17.16-19.98 21.69-6.05 3.02-12.51 5.63-19.33 5.98.8-1.31 1.75-2.61 3.18-3.29 9.02-5.24 18.66-9.52 26.92-15.98zm190.64-2.6l2.44-.97c.78 17.82 2.32 35.81 7.32 53.02 2.29 6.76 4.88 14.25 11.04 18.46 5.07 3.62 12.17 3.12 17.2-.33 2.84-1.37 5.57-4.62 9-3.28 2.89 1.22 6.22 3.18 9.36 1.74 8.65-7.2 17.26-14.87 27.68-19.45 5.81-2.97 13.14-.23 17.37 4.23 1.25 7.56-3.64 14.6-9.49 18.88-9.72 6.92-22.1 9.65-33.89 8.43-1.69-.11-3.36-1.09-5.03-.57-2.83 6.57-4.59 13.69-8.58 19.71-.03-7.47 3.29-14.38 4.9-21.56-2.53-1.36-4.96-2.89-7.29-4.56-2.9 2.69-5.52 5.69-8.65 8.11-6.08 3.93-15.17 2.59-19.72-3.12-2.51-3.51-4.25-7.5-5.81-11.5-.99 7.29-1.93 14.74-5.44 21.34 6.18 1.11 12.72 1.46 18.34 4.5.84 6.73-2.51 13.16-7.46 17.52-8.56 7.73-19.45 12.32-30.25 15.99-8.85 2.56-18.53 4.78-27.57 1.83-8.05-2.42-14.53-9.41-16.2-17.67-2.37-10.28 1.06-20.77 5.24-30.11 1.41-3.08 2.73-6.35 5.35-8.63-.21 3.58-2.26 6.6-3.49 9.87-2.58 6.58-3.81 14.04-1.58 20.91 2.42 9.17 11.78 15.86 21.24 15.29 17.89.97 34.49-7.37 49.45-16.27l.36-2.36c-6.01-2.6-12.6-3.32-19.06-3.84-2.02-.27-3.93-1.01-5.74-1.89 1.44-5.99 6.77-9.34 10.1-14.06.71-5.48.26-11.09-.4-16.56-.47-17.31-3.34-34.45-3.41-51.78-.21-3.95 1.01-7.78 2.67-11.32m77.4 58.28c-6.41 3.01-12.33 7.27-17.22 12.38 10.7.89 22.08-.3 31.51-5.75 1.81-.69 2.07-2.49 2.23-4.2-4.96-2.81-10.98-4.06-16.52-2.43z"/><path d="M349.32 50.43c1.25-2.68 1.18-6.34 4.06-7.93.84 4.42.52 9.57-3.32 12.54-2.72 3.2-7.11.39-10.49 1.83-2.55.81-6.46 2.05-8.11-.8-1-4.81 1.81-9.11 5.06-12.35.15 2.95-.06 5.9.08 8.85 5.55.51 5.29-6.31 8.75-8.85.24 2.2.3 4.41.38 6.63l3.59.08zm-33.25 6.2c-1.2-5.1.26-11.61 4.72-14.58 1.11 7.95 1.2 16.09 2.5 24.07 1.06 13.72 4.39 27.15 5.65 40.85.81 5.95 1.29 12.27-.9 17.99l-2.32-2.25c-2.01-22.17-6.44-44.06-9.65-66.08zm101.74 3.96c6.61-3 12.41-7.43 17.86-12.16-3.25 8.85-11.08 14.97-19.59 18.41-5.89 2.38-12.21 4.74-18.67 3.54 6.23-4.34 13.71-6.3 20.4-9.79zM267.89 48.54c3.62.92 2.86 5.01 1.66 7.63-.84 2.11-2.25 3.99-4.1 5.32-2.76 2.37-6.6-.31-9.66 1.21-2.24 1.14-4.77 1.03-7.2.85-2.81-4.66.13-10.32 4.05-13.27.04 2.43-.04 4.87-.1 7.3l3.98.01c1.68-2.67 2.35-6.05 4.99-8.03.2 2 .27 4.01.33 6.02 1.42.02 2.85.02 4.27-.03.53-2.35 1.15-4.68 1.78-7.01zM94.01 70.79c4.13-1.21 8.68-3.49 12.89-1.23-.21 6.14-3.65 11.52-6.6 16.71-4.16 4.93-10.78 6.77-16.68 8.76-1.25.72-4.11.35-2.92-1.6C86.91 88.6 96 86.87 100 79.52c-6.33-.69-11.91 2.84-17.81 4.41.09-6.62 6.01-11.27 11.82-13.14zm169.57 5.24c.14-1.92 1.13-3.62 2.41-5 5.99 14.14 3 30.75 10.85 44.23 3.03 5.48 9.76 7 15.55 6.03-.02-1.63.18-3.3-.29-4.89-2.78-10.04-6.74-19.89-7.57-30.35-.12-4.73-.43-10.62 3.87-13.72.57 2.88.94 5.8 1.08 8.75.97 8.96 4.45 17.37 6.92 25.97.45 7.71 1.82 16.51-3.03 23.2-2.56 3.91-8.13 4.25-11.95 2.14-3.46-1.6-5.97-4.56-8.46-7.34-3.44 4.72-7.48 9.59-13.27 11.39-5.76 2.31-13.35.06-16.2-5.65-2.92-5.37-2.97-11.67-5.14-17.29-3.3 4.37-6.69 9.64-12.42 10.93-7.42 1.07-14.59-2.24-21.14-5.3-1.45-3.12 1.18-6.06 2.7-8.58 2.39-3.75 6.82-5.13 10.72-6.73 6.08-2.31 12.06-4.98 17.57-8.48-.98-5.95 1.26-11.52 2.88-17.12l1.51.62c3.85 9.23 2.79 19.4 4.19 29.09.01 6.13 1.66 13.42 7.64 16.41 5.58 1.01 11.97.53 16.35-3.45.74-2.77.29-5.71-.04-8.51l-4.46-21.81c-.94-4.78-.8-9.72-.27-14.54m-36.19 30.03c-3.45 1.69-7.31 2.91-9.85 5.97 4.92 2.4 10.81 3.62 16.12 2.01 5.05-2.5 4.17-8.74 3.83-13.37-3.56 1.42-6.61 3.82-10.1 5.39zM47.37 136.44c4.16 1.83 8.46 3.76 11.38 7.4-1.13 3.05-2.32 6.15-4.31 8.77-3.92.56-6.92-3.26-10.07-5.11-.7-3.93 1.6-7.54 3-11.06zm58.83 8.83c.28-2.77.99-5.86 3.42-7.55 6.24 17.03 6.14 35.42 10.07 52.96 1.86 7.35 4.3 15.23 10.35 20.25 7.19 6.07 16.77 8.39 25.97 8.96 6.99 1.3 14-.22 20.99-.67 14.88-2.41 30.35-4.57 43.45-12.58-.07 2.57-.46 5.19.07 7.74 1.63 1.43 3.99 1.22 5.95.76 5.01-1.33 10-3.33 13.97-6.74 4.59-4.18 3.38-11.4 7.7-15.8 3.15 3.05-2.2 6.91.11 10.27 2 3.72 6.86 2.63 10.32 2.53.88-3.66-2.03-7.28-.18-10.7.77-2.04 1.72-4.01 2.66-5.99 3.38 3.07 3.47 8.04 3.5 12.29.09 5.2-1.02 11.23-5.63 14.37-4.88 1.11-9.97.5-14.68-.97-6.73 6.03-14.54 12.91-24.25 12.15-3.76.23-6.82-2.33-8.91-5.19-13.36 6.49-28.36 8.91-43.08 9.43-9.56 1.2-19.47.91-28.75-1.81-8.82-2.52-16.3-9.07-20.14-17.37-1.91-3.78-2.66-7.99-4.12-11.93-2.11 6.15-4.84 12.27-10.01 16.47 2.49 4.89 4.26 11 1.45 16.14-4.67 7.51-15.84 8.15-22.57 3.12-4.42 5.13-9.99 9.76-16.76 11.22-9.6 2.15-19.37 3.4-29.12 4.64-1.3.06-2.59-.18-3.87-.39 14.42-5.01 29.77-8.34 42.63-16.97 1.62-1.3 4.19-2.5 3.8-4.99-.03-8.04 3.92-16.48 10.95-20.65 3.54-2.16 6.92 1.68 10.53 1.47 3.44.11 5.77-3.11 7.39-5.73.79-14.35-.4-28.71-1.85-42.98-.29-5.27-1.56-10.46-1.36-15.76M85.59 217.7c.14 1.94-.62 4.3.94 5.84 3.07 3.79 8.33 4.58 12.91 3.88.18-2.9-.32-6.15-2.99-7.83-2.98-2.71-7.15-2.47-10.86-1.89z"/><path d="M415.82 150.09c-2.65-3.76.25-8 2.14-11.4 5.58 6.86 5.85 16.52 2.95 24.57-1.17 3.02-1.77 6.68-4.75 8.51.58-7.14 3.38-14.87-.34-21.68zm37.73-2.7c3.75-2 6.9-4.88 10.33-7.35-1.14 5.95-6.44 9.76-11.49 12.36-5.57 2.79-11.69 5.03-18.01 4.18 6.04-3.76 13.06-5.55 19.17-9.19zm-206.01.64c2.39-.84 4.83-1.57 7.37-1.79-.56 5.37-5.85 8.65-10.46 10.44-33.94 10.65-68.17 20.44-101.66 32.47-3.82 1.32-7.51 3.19-11.57 3.65 1.77-2.95 3.49-6.16 6.41-8.12 5.09-2.45 10.54-4.08 15.85-6l94.06-30.65zm150.99 11.99c-.57-5.17.64-11.15 4.78-14.62 1.37 12.8 2.47 25.64 4.74 38.33 2.57 14.3 5.87 28.74 4.44 43.36l-1.45 2.31c-2.51-3.86-1.33-8.58-2.41-12.85-3.18-18.87-7.4-37.57-10.1-56.53zm-320.81 5.82c-1.2-4.98 2.19-9.47 5.45-12.84.1 2.25.17 4.5.38 6.75-.44-.89-.8-1.83-1.18-2.75l.2 4.79c.97.22 1.93.52 2.92.55 2.43-1.83 3.13-4.96 4.25-7.62l1.73-.76c.32 2.15.76 4.29 1.13 6.44l2.84-.04c1.14-2.72 1.52-5.8 3.55-8.07 3.05 4.89-.19 11.71-4.97 14.21-2.27.24-4.54-.15-6.82-.13-2.2.49-4.22 1.59-6.35 2.33-1.08-.91-2.19-1.8-3.13-2.86zm194.03 1.15c9.06-2.97 17.87-7.07 25.05-13.46-2.38 7.13-8.82 11.9-15.29 15.15-7.5 3.34-15.79 5.71-24.06 4.58 4.07-3.4 9.52-4.25 14.3-6.27zM50.23 156.33c4.62-.74 8.09 3.17 11.59 5.5.04 4.09-2.69 7.32-4.84 10.53-3.29-2.14-6.94-3.93-9.65-6.82-.02-3.26 1.58-6.3 2.9-9.21zm316.24 8.65c.96-2.94 3.07-5.34 4.59-8 .76 5.06 4.88 8.23 8.87 10.87-.35 3.13-2.31 5.64-3.54 8.44-.35 3.48.87 6.83 1.53 10.2 2.23 10.5 4.78 21 5.61 31.73-.01 6.95 1.01 14.36-2.34 20.77-2.04 4.99-8.69 6.97-13.26 4.23-8.93-4.82-12.56-15.05-14.88-24.33-3.55 4.25-6.55 9.7-12.1 11.54-7.36 1.07-14.84-.91-21.39-4.2-1.32-5.56 2.86-11.46 7.77-13.81 7.65-3.51 15.54-6.75 22.26-11.94-2.17-5.74-.22-11.8 2.26-17.09 3.67 5.77 4.29 12.76 4.96 19.39 1.46 8.22.87 17.4 6.1 24.44 2.86 4.19 8.06 5.82 12.91 6.06 1.71-.17 3.45-.91 4.55-2.27.46-3.99-.61-7.89-1.04-11.81-2.12-12.02-5.14-23.86-8.19-35.66-1.07-3.44-.24-7.16-1.44-10.56-.74-2.8-2.65-5.17-3.23-8m-26.18 47.4c-3.15 1.67-6.31 3.38-8.96 5.79 2.38 1.23 4.89 2.48 7.65 2.44 3.57.1 7.74.63 10.51-2.16 3.31-3.37 2.03-8.55 1-12.61-3.57 1.92-6.6 4.67-10.2 6.54zm87.79-26.08c2.31-4.75 4.96-11.09 10.93-11.75 4.21 1.81 6.48 6.12 8.2 10.13 1.83 4.62 3.61 9.37 4.18 14.33.11 8.59-3.94 16.69-9.06 23.37-5.66 6.75-12.29 12.86-20.16 16.94-3.41 1.93-7.46 1.3-11.19 1.29-4.49-.02-8.84-1.23-13.17-2.27-2.93-.8-6.06-1.45-8.39-3.55 7.1-.48 14.38.71 21.33-1.22 14.1-3.38 27.15-11.82 35.35-23.87 1.57-3.85.45-8.44-2.1-11.65-2.31 3.61-3.84 8.48-8.24 10.09-3.76 1.13-8.49-.44-10.16-4.18-1.1-5.98-.39-12.26 2.48-17.66m5.71-1.03c-1.32 2.12-3.66 3.97-3.44 6.71-.54 3.96 4.04 6.33 7.5 5.64 3.37.37 4.96-4.13 2.97-6.48-1.81-2.46-3.83-5.25-7.03-5.87zm-350.83 5.06c1.27-.61 2.64-.94 4.01-1.24-1.37 5.02-6.09 8.32-10.58 10.44l-34.83 15.03c-2.32 1.05-4.72 1.99-7.27 2.32 1.83-3.48 3.77-7.45 7.69-8.93 13.8-5.52 27.46-11.42 40.98-17.62zm201.67 6.3c2.06-3.84 5.27-8.82 10.4-7.27 4.88 2.77 6.55 8.66 8.55 13.55 3.37 7.99 2.88 17.47-1.35 25.04-6.08 11.62-16.26 21.28-28.34 26.43-9.21.99-18.66-.64-27.25-4l-1.98-1.68c5.91-.32 11.87.39 17.74-.58 14.82-2.6 28.8-10.91 37.5-23.29 3.08-3.65 1.71-9.61-1.73-12.56-1.62 3.79-3.69 7.76-7.5 9.74-4.51 1.93-10.21-1.31-10.93-6.18-1.01-6.77 1.94-13.29 4.89-19.2m3.55 14.51c3 1.12 8.14 1.01 8.37-3.21-.81-3.99-4.18-6.96-7.62-8.83-4.12 2.5-5.61 9.52-.75 12.04z"/></svg>