<svg xmlns="http://www.w3.org/2000/svg" width="37.593" height="43.923" viewBox="0 0 37.593 43.923">
  <g id="zulfikar" transform="translate(-0.726 7.515) rotate(-37)">
    <path id="Path_5" data-name="Path 5" d="M9.928,45.05a2.583,2.583,0,0,1,.151-2.426l-.563-.042L9.179,41.7a4.051,4.051,0,0,1,.377-.516l-.566.026-.2-.511c-.083-.228-.168-.457-.243-.679.089-.178.208-.336.3-.513l-.5.044-.12-.311c-.061-.167-.128-.334-.193-.5l-.085-.22c-.128-.34-.351-.422-.717-.315a1.873,1.873,0,0,0-.518.382c-.216.2-.025.35.153.553a.729.729,0,0,1,.146.975c-1.257,1.538-2.515-.373-2.067-1.6.234-.642.835-1.347,1.267-2.249l.079-.2c.191-.482.119-.516-.085-1.006-.663-1.6-1.23-2.97-1.92-4.63A50.4,50.4,0,0,1,1.019,20.126C-.8,10.387,1.593,4.735,4.508.694,3.465,3.928,2.181,7.072,2.995,11,4.018,9.013,5.171,7.033,6.313,5.053c-2.291,9.568-1.706,15.316-.2,20.856a40.4,40.4,0,0,0,1.966,5.4l1,2.335c.107.25.128.425.432.468a1.222,1.222,0,0,0,.825-.308c-.515-1.524.964-1.927,1.539-1.062a2,2,0,0,1-.426,2.318A6.657,6.657,0,0,1,10.314,36.2c-.306.264-.173.306-.013.667l2.23,5.023a4.164,4.164,0,0,1,.836,1.622C13.784,45.492,10.975,46.818,9.928,45.05Z" transform="translate(0)" fill="#21825a" fill-rule="evenodd"/>
  </g>
</svg>
